<svg width="166" height="78" viewBox="0 0 166 78" fill="none" xmlns="http://www.w3.org/2000/svg">
<path d="M1.13208 51.335V15.8261H9.45624V51.335H1.13208ZM5.32746 9.97442C3.77362 9.97442 2.48615 9.48678 1.46505 8.51151C0.48835 7.53623 0 6.36147 0 4.98721C0 3.56863 0.48835 2.39386 1.46505 1.46291C2.48615 0.487638 3.77362 0 5.32746 0C6.8813 0 8.14657 0.465472 9.12327 1.39642C10.1444 2.28303 10.6549 3.41347 10.6549 4.78772C10.6549 6.25064 10.1666 7.4919 9.18987 8.51151C8.21317 9.48678 6.9257 9.97442 5.32746 9.97442Z" fill="#F84B5A"/>
<path d="M42.757 52C39.2054 52 35.8979 51.4237 32.8346 50.2711C29.8157 49.0742 27.1742 47.4118 24.91 45.2839C22.6903 43.1117 20.9588 40.5627 19.7158 37.6368C18.4727 34.711 17.8512 31.5192 17.8512 28.0614C17.8512 24.6036 18.4727 21.4118 19.7158 18.4859C20.9588 15.5601 22.7125 13.0332 24.9766 10.9054C27.2408 8.73316 29.8823 7.07076 32.9012 5.91816C35.9201 4.72123 39.2276 4.12276 42.8236 4.12276C46.6416 4.12276 50.1267 4.78772 53.2788 6.11765C56.4308 7.40324 59.0946 9.33163 61.2699 11.9028L55.6761 17.156C53.9891 15.3384 52.1023 13.9864 50.0157 13.0997C47.9291 12.1688 45.6649 11.7033 43.2232 11.7033C40.7814 11.7033 38.5395 12.1023 36.4973 12.9003C34.4995 13.6982 32.7458 14.8286 31.2364 16.2916C29.7713 17.7545 28.6171 19.4834 27.7735 21.4783C26.9744 23.4731 26.5749 25.6675 26.5749 28.0614C26.5749 30.4552 26.9744 32.6496 27.7735 34.6445C28.6171 36.6394 29.7713 38.3683 31.2364 39.8312C32.7458 41.2941 34.4995 42.4246 36.4973 43.2225C38.5395 44.0205 40.7814 44.4194 43.2232 44.4194C45.6649 44.4194 47.9291 43.9761 50.0157 43.0895C52.1023 42.1586 53.9891 40.7621 55.6761 38.9003L61.2699 44.2199C59.0946 46.7468 56.4308 48.6752 53.2788 50.0051C50.1267 51.335 46.6194 52 42.757 52Z" fill="#F84B5A"/>
<path d="M77.5562 24.1381H100.731V31.2532H77.5562V24.1381ZM78.2221 44.087H104.526V51.335H69.565V4.78772H103.594V12.0358H78.2221V44.087Z" fill="#F84B5A"/>
<path d="M114.177 51.335V4.78772H133.356C137.485 4.78772 141.014 5.45268 143.944 6.78261C146.919 8.11253 149.205 10.0188 150.804 12.5013C152.402 14.9838 153.201 17.9318 153.201 21.3453C153.201 24.7587 152.402 27.7067 150.804 30.1893C149.205 32.6274 146.919 34.5115 143.944 35.8414C141.014 37.127 137.485 37.7698 133.356 37.7698H118.972L122.834 33.8465V51.335H114.177ZM144.677 51.335L132.89 34.445H142.146L154 51.335H144.677ZM122.834 34.7775L118.972 30.6547H132.957C136.775 30.6547 139.638 29.8346 141.547 28.1944C143.5 26.5541 144.477 24.2711 144.477 21.3453C144.477 18.3751 143.5 16.0921 141.547 14.4962C139.638 12.9003 136.775 12.1023 132.957 12.1023H118.972L122.834 7.84655V34.7775Z" fill="#F84B5A"/>
<path d="M4.43019 65.584C4.43019 64.688 4.61152 63.904 4.97419 63.232C5.33685 62.5493 5.83285 62.0213 6.46219 61.648C7.10219 61.2747 7.81152 61.088 8.59019 61.088C9.35819 61.088 10.0249 61.2533 10.5902 61.584C11.1555 61.9147 11.5769 62.3307 11.8542 62.832V61.232H13.3262V70H11.8542V68.368C11.5662 68.88 11.1342 69.3067 10.5582 69.648C9.99285 69.9787 9.33152 70.144 8.57419 70.144C7.79552 70.144 7.09152 69.952 6.46219 69.568C5.83285 69.184 5.33685 68.6453 4.97419 67.952C4.61152 67.2587 4.43019 66.4693 4.43019 65.584ZM11.8542 65.6C11.8542 64.9387 11.7209 64.3627 11.4542 63.872C11.1875 63.3813 10.8249 63.008 10.3662 62.752C9.91819 62.4853 9.42219 62.352 8.87819 62.352C8.33419 62.352 7.83819 62.48 7.39019 62.736C6.94219 62.992 6.58485 63.3653 6.31819 63.856C6.05152 64.3467 5.91819 64.9227 5.91819 65.584C5.91819 66.256 6.05152 66.8427 6.31819 67.344C6.58485 67.8347 6.94219 68.2133 7.39019 68.48C7.83819 68.736 8.33419 68.864 8.87819 68.864C9.42219 68.864 9.91819 68.736 10.3662 68.48C10.8249 68.2133 11.1875 67.8347 11.4542 67.344C11.7209 66.8427 11.8542 66.2613 11.8542 65.6ZM10.7182 58.752L7.31019 60.576V59.488L10.7182 57.488V58.752ZM17.2427 62.656C17.4987 62.1547 17.8614 61.7653 18.3307 61.488C18.8107 61.2107 19.392 61.072 20.0747 61.072V62.576H19.6907C18.0587 62.576 17.2427 63.4613 17.2427 65.232V70H15.7867V61.232H17.2427V62.656ZM29.7554 65.28C29.7554 65.5573 29.7394 65.8507 29.7074 66.16H22.6994C22.7528 67.024 23.0461 67.7013 23.5794 68.192C24.1234 68.672 24.7794 68.912 25.5474 68.912C26.1768 68.912 26.6994 68.768 27.1154 68.48C27.5421 68.1813 27.8408 67.7867 28.0114 67.296H29.5794C29.3448 68.1387 28.8754 68.8267 28.1714 69.36C27.4674 69.8827 26.5928 70.144 25.5474 70.144C24.7154 70.144 23.9688 69.9573 23.3074 69.584C22.6568 69.2107 22.1448 68.6827 21.7714 68C21.3981 67.3067 21.2114 66.5067 21.2114 65.6C21.2114 64.6933 21.3928 63.8987 21.7554 63.216C22.1181 62.5333 22.6248 62.0107 23.2754 61.648C23.9368 61.2747 24.6941 61.088 25.5474 61.088C26.3794 61.088 27.1154 61.2693 27.7554 61.632C28.3954 61.9947 28.8861 62.496 29.2274 63.136C29.5794 63.7653 29.7554 64.48 29.7554 65.28ZM28.2514 64.976C28.2514 64.4213 28.1288 63.9467 27.8834 63.552C27.6381 63.1467 27.3021 62.8427 26.8754 62.64C26.4594 62.4267 25.9954 62.32 25.4834 62.32C24.7474 62.32 24.1181 62.5547 23.5954 63.024C23.0834 63.4933 22.7901 64.144 22.7154 64.976H28.2514ZM31.1333 65.584C31.1333 64.688 31.3146 63.904 31.6773 63.232C32.04 62.5493 32.536 62.0213 33.1653 61.648C33.8053 61.2747 34.5146 61.088 35.2933 61.088C36.0613 61.088 36.728 61.2533 37.2933 61.584C37.8586 61.9147 38.28 62.3307 38.5573 62.832V61.232H40.0293V70H38.5573V68.368C38.2693 68.88 37.8373 69.3067 37.2613 69.648C36.696 69.9787 36.0346 70.144 35.2773 70.144C34.4986 70.144 33.7946 69.952 33.1653 69.568C32.536 69.184 32.04 68.6453 31.6773 67.952C31.3146 67.2587 31.1333 66.4693 31.1333 65.584ZM38.5573 65.6C38.5573 64.9387 38.424 64.3627 38.1573 63.872C37.8906 63.3813 37.528 63.008 37.0693 62.752C36.6213 62.4853 36.1253 62.352 35.5813 62.352C35.0373 62.352 34.5413 62.48 34.0933 62.736C33.6453 62.992 33.288 63.3653 33.0213 63.856C32.7546 64.3467 32.6213 64.9227 32.6213 65.584C32.6213 66.256 32.7546 66.8427 33.0213 67.344C33.288 67.8347 33.6453 68.2133 34.0933 68.48C34.5413 68.736 35.0373 68.864 35.5813 68.864C36.1253 68.864 36.6213 68.736 37.0693 68.48C37.528 68.2133 37.8906 67.8347 38.1573 67.344C38.424 66.8427 38.5573 66.2613 38.5573 65.6ZM46.2114 65.584C46.2114 64.688 46.3928 63.904 46.7554 63.232C47.1181 62.5493 47.6141 62.0213 48.2434 61.648C48.8834 61.2747 49.5928 61.088 50.3714 61.088C51.1394 61.088 51.8061 61.2533 52.3714 61.584C52.9368 61.9147 53.3581 62.3307 53.6354 62.832V61.232H55.1074V70H53.6354V68.368C53.3474 68.88 52.9154 69.3067 52.3394 69.648C51.7741 69.9787 51.1128 70.144 50.3554 70.144C49.5768 70.144 48.8728 69.952 48.2434 69.568C47.6141 69.184 47.1181 68.6453 46.7554 67.952C46.3928 67.2587 46.2114 66.4693 46.2114 65.584ZM53.6354 65.6C53.6354 64.9387 53.5021 64.3627 53.2354 63.872C52.9688 63.3813 52.6061 63.008 52.1474 62.752C51.6994 62.4853 51.2034 62.352 50.6594 62.352C50.1154 62.352 49.6194 62.48 49.1714 62.736C48.7234 62.992 48.3661 63.3653 48.0994 63.856C47.8328 64.3467 47.6994 64.9227 47.6994 65.584C47.6994 66.256 47.8328 66.8427 48.0994 67.344C48.3661 67.8347 48.7234 68.2133 49.1714 68.48C49.6194 68.736 50.1154 68.864 50.6594 68.864C51.2034 68.864 51.6994 68.736 52.1474 68.48C52.6061 68.2133 52.9688 67.8347 53.2354 67.344C53.5021 66.8427 53.6354 66.2613 53.6354 65.6ZM57.0239 65.584C57.0239 64.688 57.2053 63.904 57.5679 63.232C57.9306 62.5493 58.4266 62.0213 59.0559 61.648C59.6959 61.2747 60.4106 61.088 61.1999 61.088C61.8826 61.088 62.5173 61.248 63.1039 61.568C63.6906 61.8773 64.1386 62.288 64.4479 62.8V58.16H65.9199V70H64.4479V68.352C64.1599 68.8747 63.7333 69.3067 63.1679 69.648C62.6026 69.9787 61.9413 70.144 61.1839 70.144C60.4053 70.144 59.6959 69.952 59.0559 69.568C58.4266 69.184 57.9306 68.6453 57.5679 67.952C57.2053 67.2587 57.0239 66.4693 57.0239 65.584ZM64.4479 65.6C64.4479 64.9387 64.3146 64.3627 64.0479 63.872C63.7813 63.3813 63.4186 63.008 62.9599 62.752C62.5119 62.4853 62.0159 62.352 61.4719 62.352C60.9279 62.352 60.4319 62.48 59.9839 62.736C59.5359 62.992 59.1786 63.3653 58.9119 63.856C58.6453 64.3467 58.5119 64.9227 58.5119 65.584C58.5119 66.256 58.6453 66.8427 58.9119 67.344C59.1786 67.8347 59.5359 68.2133 59.9839 68.48C60.4319 68.736 60.9279 68.864 61.4719 68.864C62.0159 68.864 62.5119 68.736 62.9599 68.48C63.4186 68.2133 63.7813 67.8347 64.0479 67.344C64.3146 66.8427 64.4479 66.2613 64.4479 65.6ZM78.9244 61.072C79.6071 61.072 80.2151 61.216 80.7484 61.504C81.2818 61.7813 81.7031 62.2027 82.0124 62.768C82.3218 63.3333 82.4764 64.0213 82.4764 64.832V70H81.0364V65.04C81.0364 64.1653 80.8178 63.4987 80.3804 63.04C79.9538 62.5707 79.3724 62.336 78.6364 62.336C77.8791 62.336 77.2764 62.5813 76.8284 63.072C76.3804 63.552 76.1564 64.2507 76.1564 65.168V70H74.7164V65.04C74.7164 64.1653 74.4978 63.4987 74.0604 63.04C73.6338 62.5707 73.0524 62.336 72.3164 62.336C71.5591 62.336 70.9564 62.5813 70.5084 63.072C70.0604 63.552 69.8364 64.2507 69.8364 65.168V70H68.3804V61.232H69.8364V62.496C70.1244 62.0373 70.5084 61.6853 70.9884 61.44C71.4791 61.1947 72.0178 61.072 72.6044 61.072C73.3404 61.072 73.9911 61.2373 74.5564 61.568C75.1218 61.8987 75.5431 62.384 75.8204 63.024C76.0658 62.4053 76.4711 61.9253 77.0364 61.584C77.6018 61.2427 78.2311 61.072 78.9244 61.072ZM85.6168 59.808C85.3395 59.808 85.1048 59.712 84.9128 59.52C84.7208 59.328 84.6248 59.0933 84.6248 58.816C84.6248 58.5387 84.7208 58.304 84.9128 58.112C85.1048 57.92 85.3395 57.824 85.6168 57.824C85.8835 57.824 86.1075 57.92 86.2888 58.112C86.4808 58.304 86.5768 58.5387 86.5768 58.816C86.5768 59.0933 86.4808 59.328 86.2888 59.52C86.1075 59.712 85.8835 59.808 85.6168 59.808ZM86.3208 61.232V70H84.8648V61.232H86.3208ZM93.0743 61.072C94.141 61.072 95.005 61.3973 95.6663 62.048C96.3276 62.688 96.6583 63.616 96.6583 64.832V70H95.2183V65.04C95.2183 64.1653 94.9996 63.4987 94.5623 63.04C94.125 62.5707 93.5276 62.336 92.7703 62.336C92.0023 62.336 91.389 62.576 90.9303 63.056C90.4823 63.536 90.2583 64.2347 90.2583 65.152V70H88.8023V61.232H90.2583V62.48C90.5463 62.032 90.9356 61.6853 91.4263 61.44C91.9276 61.1947 92.477 61.072 93.0743 61.072ZM99.7887 59.808C99.5114 59.808 99.2767 59.712 99.0847 59.52C98.8927 59.328 98.7967 59.0933 98.7967 58.816C98.7967 58.5387 98.8927 58.304 99.0847 58.112C99.2767 57.92 99.5114 57.824 99.7887 57.824C100.055 57.824 100.279 57.92 100.461 58.112C100.653 58.304 100.749 58.5387 100.749 58.816C100.749 59.0933 100.653 59.328 100.461 59.52C100.279 59.712 100.055 59.808 99.7887 59.808ZM100.493 61.232V70H99.0367V61.232H100.493ZM106.078 70.144C105.406 70.144 104.804 70.032 104.27 69.808C103.737 69.5733 103.316 69.2533 103.006 68.848C102.697 68.432 102.526 67.9573 102.494 67.424H103.998C104.041 67.8613 104.244 68.2187 104.606 68.496C104.98 68.7733 105.465 68.912 106.062 68.912C106.617 68.912 107.054 68.7893 107.374 68.544C107.694 68.2987 107.854 67.9893 107.854 67.616C107.854 67.232 107.684 66.9493 107.342 66.768C107.001 66.576 106.473 66.3893 105.758 66.208C105.108 66.0373 104.574 65.8667 104.158 65.696C103.753 65.5147 103.401 65.2533 103.102 64.912C102.814 64.56 102.67 64.1013 102.67 63.536C102.67 63.088 102.804 62.6773 103.07 62.304C103.337 61.9307 103.716 61.6373 104.206 61.424C104.697 61.2 105.257 61.088 105.886 61.088C106.857 61.088 107.641 61.3333 108.238 61.824C108.836 62.3147 109.156 62.9867 109.198 63.84H107.742C107.71 63.3813 107.524 63.0133 107.182 62.736C106.852 62.4587 106.404 62.32 105.838 62.32C105.316 62.32 104.9 62.432 104.59 62.656C104.281 62.88 104.126 63.1733 104.126 63.536C104.126 63.824 104.217 64.064 104.398 64.256C104.59 64.4373 104.825 64.5867 105.102 64.704C105.39 64.8107 105.785 64.9333 106.286 65.072C106.916 65.2427 107.428 65.4133 107.822 65.584C108.217 65.744 108.553 65.9893 108.83 66.32C109.118 66.6507 109.268 67.0827 109.278 67.616C109.278 68.096 109.145 68.528 108.878 68.912C108.612 69.296 108.233 69.6 107.742 69.824C107.262 70.0373 106.708 70.144 106.078 70.144ZM113.11 62.432V67.6C113.11 68.0267 113.2 68.3307 113.382 68.512C113.563 68.6827 113.878 68.768 114.326 68.768H115.398V70H114.086C113.275 70 112.667 69.8133 112.262 69.44C111.856 69.0667 111.654 68.4533 111.654 67.6V62.432H110.518V61.232H111.654V59.024H113.11V61.232H115.398V62.432H113.11ZM118.618 62.656C118.874 62.1547 119.236 61.7653 119.706 61.488C120.186 61.2107 120.767 61.072 121.45 61.072V62.576H121.066C119.434 62.576 118.618 63.4613 118.618 65.232V70H117.162V61.232H118.618V62.656ZM122.586 65.584C122.586 64.688 122.768 63.904 123.13 63.232C123.493 62.5493 123.989 62.0213 124.618 61.648C125.258 61.2747 125.968 61.088 126.746 61.088C127.514 61.088 128.181 61.2533 128.746 61.584C129.312 61.9147 129.733 62.3307 130.01 62.832V61.232H131.482V70H130.01V68.368C129.722 68.88 129.29 69.3067 128.714 69.648C128.149 69.9787 127.488 70.144 126.73 70.144C125.952 70.144 125.248 69.952 124.618 69.568C123.989 69.184 123.493 68.6453 123.13 67.952C122.768 67.2587 122.586 66.4693 122.586 65.584ZM130.01 65.6C130.01 64.9387 129.877 64.3627 129.61 63.872C129.344 63.3813 128.981 63.008 128.522 62.752C128.074 62.4853 127.578 62.352 127.034 62.352C126.49 62.352 125.994 62.48 125.546 62.736C125.098 62.992 124.741 63.3653 124.474 63.856C124.208 64.3467 124.074 64.9227 124.074 65.584C124.074 66.256 124.208 66.8427 124.474 67.344C124.741 67.8347 125.098 68.2133 125.546 68.48C125.994 68.736 126.49 68.864 127.034 68.864C127.578 68.864 128.074 68.736 128.522 68.48C128.981 68.2133 129.344 67.8347 129.61 67.344C129.877 66.8427 130.01 66.2613 130.01 65.6ZM135.719 62.432V67.6C135.719 68.0267 135.81 68.3307 135.991 68.512C136.172 68.6827 136.487 68.768 136.935 68.768H138.007V70H136.695C135.884 70 135.276 69.8133 134.871 69.44C134.466 69.0667 134.263 68.4533 134.263 67.6V62.432H133.127V61.232H134.263V59.024H135.719V61.232H138.007V62.432H135.719ZM140.523 59.808C140.246 59.808 140.011 59.712 139.819 59.52C139.627 59.328 139.531 59.0933 139.531 58.816C139.531 58.5387 139.627 58.304 139.819 58.112C140.011 57.92 140.246 57.824 140.523 57.824C140.79 57.824 141.014 57.92 141.195 58.112C141.387 58.304 141.483 58.5387 141.483 58.816C141.483 59.0933 141.387 59.328 141.195 59.52C141.014 59.712 140.79 59.808 140.523 59.808ZM141.227 61.232V70H139.771V61.232H141.227ZM146.973 68.656L149.693 61.232H151.245L147.805 70H146.109L142.669 61.232H144.237L146.973 68.656ZM152.133 65.584C152.133 64.688 152.315 63.904 152.677 63.232C153.04 62.5493 153.536 62.0213 154.165 61.648C154.805 61.2747 155.515 61.088 156.293 61.088C157.061 61.088 157.728 61.2533 158.293 61.584C158.859 61.9147 159.28 62.3307 159.557 62.832V61.232H161.029V70H159.557V68.368C159.269 68.88 158.837 69.3067 158.261 69.648C157.696 69.9787 157.035 70.144 156.277 70.144C155.499 70.144 154.795 69.952 154.165 69.568C153.536 69.184 153.04 68.6453 152.677 67.952C152.315 67.2587 152.133 66.4693 152.133 65.584ZM159.557 65.6C159.557 64.9387 159.424 64.3627 159.157 63.872C158.891 63.3813 158.528 63.008 158.069 62.752C157.621 62.4853 157.125 62.352 156.581 62.352C156.037 62.352 155.541 62.48 155.093 62.736C154.645 62.992 154.288 63.3653 154.021 63.856C153.755 64.3467 153.621 64.9227 153.621 65.584C153.621 66.256 153.755 66.8427 154.021 67.344C154.288 67.8347 154.645 68.2133 155.093 68.48C155.541 68.736 156.037 68.864 156.581 68.864C157.125 68.864 157.621 68.736 158.069 68.48C158.528 68.2133 158.891 67.8347 159.157 67.344C159.424 66.8427 159.557 66.2613 159.557 65.6Z" fill="#1F2E36" fill-opacity="0.52"/>
</svg>
